<svg xmlns="http://www.w3.org/2000/svg" viewBox="0 0 100 100" fill="none" stroke="white" stroke-width="2">
  <path d="M75.8,24.2C65.4,34.6,55,45,44.6,55.4c-3.1,3.1-6.1,6.1-9.2,9.2c-3.8,3.8-7.4,7.7-10.8,11.9c-0.7,0.9-1.4,1.9-1.7,3
    c-0.3,1-0.1,2.2,0.7,2.9c0.8,0.8,2,1,3,0.7c1.1-0.3,2.1-1,3-1.7c4.2-3.4,8.1-7,11.9-10.8c3.1-3.1,6.1-6.1,9.2-9.2
    C61,45,71.4,34.6,81.8,24.2c1.4-1.4,2.8-2.8,4.2-4.2c-4.9-0.2-9.7-0.4-14.6-0.7c-5.5-0.2-11-1.2-16.3-2.6C50,15.6,44.9,14,39.9,12
    c-2.6-1-5.2-2.1-7.8-3.1c-1.2-0.5-2.9-0.2-3.9,0.8c-0.8,0.8-1.3,1.9-1.4,3c-0.1,1.6,0.4,3,1.1,4.4c1.5,3,3.4,5.7,5.6,8.2
    c3.8,4.5,8.2,8.5,12.8,12.2c-4.6-3.7-9-7.7-12.8-12.2c-2.2-2.5-4.1-5.2-5.6-8.2c-0.7-1.4-1.2-2.9-1.1-4.4c0.1-1.1,0.6-2.2,1.4-3
    c0.9-1,2.7-1.2,3.9-0.8c2.6,1,5.2,2.1,7.8,3.1c5,2,10.1,3.6,15.3,4.7c5.3,1.4,10.8,2.3,16.3,2.6c4.9,0.2,9.7,0.4,14.6,0.7
    C78.6,21.4,77.2,22.8,75.8,24.2z"/>
</svg> 